<svg width="66" height="14" viewBox="0 0 66 14" fill="none" xmlns="http://www.w3.org/2000/svg">
<path d="M6.29199 0.623535C7.34342 0.623535 8.36995 0.894694 9.37158 1.43701C10.3732 1.9738 11.1535 2.74577 11.7124 3.75293C12.2713 4.75456 12.5508 5.80046 12.5508 6.89062C12.5508 7.96973 12.2741 9.00732 11.7207 10.0034C11.1729 10.9995 10.4009 11.7743 9.40479 12.3276C8.41423 12.8755 7.37663 13.1494 6.29199 13.1494C5.20736 13.1494 4.16699 12.8755 3.1709 12.3276C2.18034 11.7743 1.40837 10.9995 0.85498 10.0034C0.301595 9.00732 0.0249023 7.96973 0.0249023 6.89062C0.0249023 5.80046 0.304362 4.75456 0.863281 3.75293C1.42773 2.74577 2.21077 1.9738 3.2124 1.43701C4.21403 0.894694 5.24056 0.623535 6.29199 0.623535ZM6.29199 1.66113C5.41211 1.66113 4.55436 1.88802 3.71875 2.3418C2.88867 2.79004 2.23844 3.43473 1.76807 4.27588C1.29769 5.11149 1.0625 5.98307 1.0625 6.89062C1.0625 7.79264 1.29215 8.65869 1.75146 9.48877C2.21631 10.3133 2.86377 10.958 3.69385 11.4229C4.52393 11.8822 5.38997 12.1118 6.29199 12.1118C7.19401 12.1118 8.06006 11.8822 8.89014 11.4229C9.72021 10.958 10.3649 10.3133 10.8242 9.48877C11.2835 8.65869 11.5132 7.79264 11.5132 6.89062C11.5132 5.98307 11.278 5.11149 10.8076 4.27588C10.3428 3.43473 9.69255 2.79004 8.85693 2.3418C8.02132 1.88802 7.16634 1.66113 6.29199 1.66113ZM8.30078 7.90332L9.32178 8.20215C9.15576 8.89388 8.8016 9.44727 8.25928 9.8623C7.72249 10.2718 7.0695 10.4766 6.30029 10.4766C5.32633 10.4766 4.53499 10.1611 3.92627 9.53027C3.31755 8.89941 3.01318 8.02507 3.01318 6.90723C3.01318 6.17676 3.15153 5.54313 3.42822 5.00635C3.70492 4.46403 4.09782 4.05729 4.60693 3.78613C5.12158 3.50944 5.70817 3.37109 6.3667 3.37109C7.1027 3.37109 7.71419 3.54818 8.20117 3.90234C8.68815 4.25098 9.02018 4.72689 9.19727 5.33008L8.20947 5.5708C8.04346 5.1613 7.7972 4.84863 7.4707 4.63281C7.14974 4.41146 6.77067 4.30078 6.3335 4.30078C5.6971 4.30078 5.17139 4.52767 4.75635 4.98145C4.34684 5.43522 4.14209 6.08545 4.14209 6.93213C4.14209 7.77881 4.33577 8.42074 4.72314 8.85791C5.11605 9.28955 5.6224 9.50537 6.24219 9.50537C6.74023 9.50537 7.17741 9.36149 7.55371 9.07373C7.93001 8.78597 8.17904 8.39583 8.30078 7.90332ZM18.5771 13V0.831055H22.769C23.7153 0.831055 24.4375 0.88916 24.9355 1.00537C25.6328 1.16585 26.2277 1.45638 26.7202 1.87695C27.3621 2.41927 27.8408 3.11377 28.1562 3.96045C28.4772 4.8016 28.6377 5.76449 28.6377 6.84912C28.6377 7.77327 28.5298 8.59229 28.314 9.30615C28.0981 10.02 27.8215 10.6121 27.4839 11.0825C27.1463 11.5474 26.7756 11.9154 26.3716 12.1865C25.9731 12.4521 25.4889 12.6541 24.9189 12.7925C24.3545 12.9308 23.7043 13 22.9683 13H18.5771ZM20.1875 11.564H22.7856C23.5881 11.564 24.2161 11.4893 24.6699 11.3398C25.1292 11.1904 25.4945 10.9801 25.7656 10.709C26.1475 10.3271 26.4435 9.81527 26.6538 9.17334C26.8696 8.52588 26.9775 7.74284 26.9775 6.82422C26.9775 5.55143 26.7673 4.57471 26.3467 3.89404C25.9316 3.20785 25.4253 2.74854 24.8276 2.51611C24.396 2.3501 23.7015 2.26709 22.7441 2.26709H20.1875V11.564ZM32.9873 13L29.7583 0.831055H31.4102L33.2612 8.80811C33.4604 9.64372 33.632 10.4738 33.7759 11.2983C34.0858 9.99788 34.2684 9.24805 34.3237 9.04883L36.6396 0.831055H38.582L40.3252 6.99023C40.7624 8.51758 41.0778 9.95361 41.2715 11.2983C41.4264 10.5291 41.6284 9.64648 41.8774 8.65039L43.7866 0.831055H45.4053L42.0684 13H40.5161L37.9512 3.72803C37.7354 2.95329 37.6081 2.47738 37.5693 2.30029C37.4421 2.85921 37.3231 3.33512 37.2124 3.72803L34.6309 13H32.9873ZM46.9492 13V0.831055H55.748V2.26709H48.5596V5.99414H55.2915V7.42188H48.5596V11.564H56.0303V13H46.9492ZM58.1885 13V0.831055H59.7988V11.564H65.792V13H58.1885Z" fill="black"/>
</svg>
