<svg width="61" height="14" viewBox="0 0 61 14" fill="none" xmlns="http://www.w3.org/2000/svg">
<path d="M0.311523 13V0.831055H4.50342C5.44971 0.831055 6.17188 0.88916 6.66992 1.00537C7.36719 1.16585 7.96208 1.45638 8.45459 1.87695C9.09652 2.41927 9.5752 3.11377 9.89062 3.96045C10.2116 4.8016 10.3721 5.76449 10.3721 6.84912C10.3721 7.77327 10.2642 8.59229 10.0483 9.30615C9.83252 10.02 9.55583 10.6121 9.21826 11.0825C8.8807 11.5474 8.50993 11.9154 8.10596 12.1865C7.70752 12.4521 7.22331 12.6541 6.65332 12.7925C6.08887 12.9308 5.43864 13 4.70264 13H0.311523ZM1.92188 11.564H4.52002C5.32243 11.564 5.95052 11.4893 6.4043 11.3398C6.86361 11.1904 7.22884 10.9801 7.5 10.709C7.88184 10.3271 8.1779 9.81527 8.38818 9.17334C8.604 8.52588 8.71191 7.74284 8.71191 6.82422C8.71191 5.55143 8.50163 4.57471 8.08105 3.89404C7.66602 3.20785 7.15967 2.74854 6.56201 2.51611C6.13037 2.3501 5.43587 2.26709 4.47852 2.26709H1.92188V11.564ZM14.7217 13L11.4927 0.831055H13.1445L14.9956 8.80811C15.1948 9.64372 15.3664 10.4738 15.5103 11.2983C15.8201 9.99788 16.0028 9.24805 16.0581 9.04883L18.374 0.831055H20.3164L22.0596 6.99023C22.4967 8.51758 22.8122 9.95361 23.0059 11.2983C23.1608 10.5291 23.3628 9.64648 23.6118 8.65039L25.521 0.831055H27.1396L23.8027 13H22.2505L19.6855 3.72803C19.4697 2.95329 19.3424 2.47738 19.3037 2.30029C19.1764 2.85921 19.0575 3.33512 18.9468 3.72803L16.3652 13H14.7217ZM28.6836 13V0.831055H37.4824V2.26709H30.2939V5.99414H37.0259V7.42188H30.2939V11.564H37.7646V13H28.6836ZM39.9229 13V0.831055H41.5332V11.564H47.5264V13H39.9229ZM54.4326 0.623535C55.484 0.623535 56.5106 0.894694 57.5122 1.43701C58.5138 1.9738 59.2941 2.74577 59.853 3.75293C60.4119 4.75456 60.6914 5.80046 60.6914 6.89062C60.6914 7.96973 60.4147 9.00732 59.8613 10.0034C59.3135 10.9995 58.5415 11.7743 57.5454 12.3276C56.5549 12.8755 55.5173 13.1494 54.4326 13.1494C53.348 13.1494 52.3076 12.8755 51.3115 12.3276C50.321 11.7743 49.549 10.9995 48.9956 10.0034C48.4422 9.00732 48.1655 7.96973 48.1655 6.89062C48.1655 5.80046 48.445 4.75456 49.0039 3.75293C49.5684 2.74577 50.3514 1.9738 51.353 1.43701C52.3547 0.894694 53.3812 0.623535 54.4326 0.623535ZM54.4326 1.66113C53.5527 1.66113 52.695 1.88802 51.8594 2.3418C51.0293 2.79004 50.3791 3.43473 49.9087 4.27588C49.4383 5.11149 49.2031 5.98307 49.2031 6.89062C49.2031 7.79264 49.4328 8.65869 49.8921 9.48877C50.3569 10.3133 51.0044 10.958 51.8345 11.4229C52.6646 11.8822 53.5306 12.1118 54.4326 12.1118C55.3346 12.1118 56.2007 11.8822 57.0308 11.4229C57.8608 10.958 58.5055 10.3133 58.9648 9.48877C59.4242 8.65869 59.6538 7.79264 59.6538 6.89062C59.6538 5.98307 59.4186 5.11149 58.9482 4.27588C58.4834 3.43473 57.8332 2.79004 56.9976 2.3418C56.1619 1.88802 55.307 1.66113 54.4326 1.66113ZM51.6851 10.3521V3.61182H54.001C54.7923 3.61182 55.3651 3.67546 55.7192 3.80273C56.0734 3.92448 56.3556 4.1403 56.5659 4.4502C56.7762 4.76009 56.8813 5.08936 56.8813 5.43799C56.8813 5.9305 56.7043 6.35938 56.3501 6.72461C56.0015 7.08984 55.5366 7.2946 54.9556 7.33887C55.1935 7.43848 55.3844 7.55745 55.5283 7.6958C55.7995 7.96143 56.1315 8.4069 56.5244 9.03223L57.3462 10.3521H56.0181L55.4204 9.28955C54.95 8.45394 54.571 7.93099 54.2832 7.7207C54.084 7.56576 53.7935 7.48828 53.4116 7.48828H52.7725V10.3521H51.6851ZM52.7725 6.55859H54.0923C54.7231 6.55859 55.152 6.46452 55.3789 6.27637C55.6113 6.08822 55.7275 5.83919 55.7275 5.5293C55.7275 5.33008 55.6722 5.15299 55.5615 4.99805C55.4508 4.83757 55.2959 4.71859 55.0967 4.64111C54.903 4.56364 54.5405 4.5249 54.0093 4.5249H52.7725V6.55859Z" fill="black"/>
</svg>
